<svg xmlns="http://www.w3.org/2000/svg" viewBox="0 0 400 400" width="400" height="400"><defs><radialGradient id="g" cx="30%" cy="25%" r="90%"><stop offset="0" stop-color="#7c3aed" stop-opacity=".55"/><stop offset="1" stop-color="#0f0f23"/></radialGradient><filter id="b"><feGaussianBlur stdDeviation="18"/></filter></defs><rect width="400" height="400" fill="url(#g)"/><g filter="url(#b)"><rect x="256.5" y="288.5" width="71" height="71" rx="12" fill="#a78bfa" opacity="0.46" transform="rotate(85 292 324)"/><circle cx="400" cy="156" r="98" fill="#7c3aed" opacity="0.76"/><rect x="26" y="157" width="132" height="132" rx="22" fill="#7c3aed" opacity="0.49" transform="rotate(42 92 223)"/><rect x="332.5" y="294.5" width="93" height="93" rx="16" fill="#a78bfa" opacity="0.35" transform="rotate(9 379 341)"/><circle cx="246" cy="74" r="121" fill="#a78bfa" opacity="0.66"/><rect x="303" y="218" width="42" height="42" rx="7" fill="#fbbf24" opacity="0.52" transform="rotate(82 324 239)"/><rect x="100" y="32" width="154" height="154" rx="26" fill="#a78bfa" opacity="0.53" transform="rotate(0 177 109)"/></g><g><rect x="256.5" y="288.5" width="71" height="71" rx="12" fill="#a78bfa" opacity="0.46" transform="rotate(85 292 324)"/><circle cx="400" cy="156" r="98" fill="#7c3aed" opacity="0.76"/></g></svg>